HIERARCHY
ROOT joint_0
{
	OFFSET 0.000000 0.000000 0.000000
	CHANNELS 6 Xposition Yposition Zposition Zrotation Yrotation Xrotation 
	JOINT joint_1
	{
		OFFSET 3.886261 -0.864090 119.041016
		CHANNELS 3 Zrotation Yrotation Xrotation
		JOINT joint_2
		{
			OFFSET -8.814819 -1.400200 108.366943
			CHANNELS 3 Zrotation Yrotation Xrotation
			JOINT joint_3
			{
				OFFSET -10.127777 -1.846550 108.123047
				CHANNELS 3 Zrotation Yrotation Xrotation
				JOINT joint_4
				{
					OFFSET -0.104309 -2.852760 150.227051
					CHANNELS 3 Zrotation Yrotation Xrotation
					JOINT joint_5
					{
						OFFSET 20.206146 2.292160 92.163940
						CHANNELS 3 Zrotation Yrotation Xrotation
						End Site
						{
							OFFSET 0.000000 0.000000 0.000000
						}
					}
				}
				JOINT joint_6
				{
					OFFSET 0.345886 -34.260384 83.589966
					CHANNELS 3 Zrotation Yrotation Xrotation
					JOINT joint_7
					{
						OFFSET -3.824402 -146.174217 -19.015991
						CHANNELS 3 Zrotation Yrotation Xrotation
						JOINT joint_8
						{
							OFFSET 134.098145 -24.802032 -261.230957
							CHANNELS 3 Zrotation Yrotation Xrotation
							JOINT joint_9
							{
								OFFSET 123.899048 209.340523 59.187012
								CHANNELS 3 Zrotation Yrotation Xrotation
								End Site
								{
									OFFSET 0.000000 0.000000 0.000000
								}
							}
						}
					}
				}
				JOINT joint_10
				{
					OFFSET -0.423798 31.098438 84.831055
					CHANNELS 3 Zrotation Yrotation Xrotation
					JOINT joint_11
					{
						OFFSET 3.093201 146.891491 -12.504028
						CHANNELS 3 Zrotation Yrotation Xrotation
						JOINT joint_12
						{
							OFFSET 195.631927 -20.967743 -219.380981
							CHANNELS 3 Zrotation Yrotation Xrotation
							JOINT joint_13
							{
								OFFSET -8.651001 -247.511261 -36.616089
								CHANNELS 3 Zrotation Yrotation Xrotation
								End Site
								{
									OFFSET 0.000000 0.000000 0.000000
								}
							}
						}
					}
				}
			}
		}
	}
	JOINT joint_14
	{
		OFFSET 6.948090 -87.642914 -106.942017
		CHANNELS 3 Zrotation Yrotation Xrotation
		JOINT joint_15
		{
			OFFSET -34.394226 4.543823 -458.972961
			CHANNELS 3 Zrotation Yrotation Xrotation
			JOINT joint_16
			{
				OFFSET -17.051544 6.964645 -485.636009
				CHANNELS 3 Zrotation Yrotation Xrotation
				JOINT joint_17
				{
					OFFSET 190.520630 40.462875 -83.888000
					CHANNELS 3 Zrotation Yrotation Xrotation
					End Site
					{
						OFFSET 0.000000 0.000000 0.000000
					}
				}
			}
		}
	}
	JOINT joint_18
	{
		OFFSET 3.929901 87.535423 -107.188965
		CHANNELS 3 Zrotation Yrotation Xrotation
		JOINT joint_19
		{
			OFFSET -34.463440 -10.383845 -458.873047
			CHANNELS 3 Zrotation Yrotation Xrotation
			JOINT joint_20
			{
				OFFSET 14.641205 -11.071349 -485.637978
				CHANNELS 3 Zrotation Yrotation Xrotation
				JOINT joint_21
				{
					OFFSET 194.569275 -4.161928 -84.249998
					CHANNELS 3 Zrotation Yrotation Xrotation
					End Site
					{
						OFFSET 0.000000 0.000000 0.000000
					}
				}
			}
		}
	}
}
MOTION
Frames: 12
Frame Time: 0.016667
800.962036 -47.885685 1154.858032 -1.345295 -2.853276 0.781705 0.405171 3.239547 3.359607 0.043798 -0.630638 -0.764918 0.192023 0.857145 0.521648 0.535835 -0.518542 -2.370340 0.000000 0.000000 0.000000 2.482612 10.287349 -2.642710 12.725173 11.475396 -2.029199 -50.439218 9.810141 -91.993960 0.000000 0.000000 0.000000 1.778049 15.560422 -6.903457 2.371038 15.381736 17.407041 36.633994 -32.221170 50.987608 0.000000 0.000000 0.000000 -0.565483 2.324946 -0.521376 -0.558547 2.619355 -0.442536 -0.653649 -2.025911 0.142980 0.000000 0.000000 0.000000 -1.688786 1.019189 2.020460 -1.700296 5.015437 0.993631 -1.609103 -3.194384 -0.763436 0.000000 0.000000 0.000000 
800.830139 -47.937622 1154.862061 -1.307465 -2.892462 0.821309 0.472053 3.161543 3.296004 0.132591 -0.618366 -0.750904 0.278793 0.842770 0.505285 0.513417 -0.151203 -2.311007 0.000000 0.000000 0.000000 2.184830 10.414384 -2.561258 12.752382 11.521900 -1.985005 -50.493092 9.734080 -92.091228 0.000000 0.000000 0.000000 1.621878 15.527060 -6.973491 2.402687 15.381490 17.521761 36.627224 -32.277031 51.061294 0.000000 0.000000 0.000000 -0.595696 2.168014 -0.513849 -0.569527 2.997232 -0.575249 -0.682047 -2.238162 0.175748 0.000000 0.000000 0.000000 -1.651087 -0.198975 1.991200 -1.747260 7.447391 0.931923 -1.618778 -4.436490 -0.792585 0.000000 0.000000 0.000000 
800.761902 -48.114635 1154.983032 -1.274051 -2.923338 0.804709 0.577359 3.013715 3.375229 0.256433 -0.552605 -0.826165 0.408381 0.794584 0.484939 0.483780 0.318744 -2.231533 0.000000 0.000000 0.000000 1.755702 10.578670 -2.497264 12.762388 11.562866 -1.860824 -50.561136 9.616148 -92.137758 0.000000 0.000000 0.000000 1.433200 15.491814 -7.041562 2.406260 15.378438 17.670107 36.601611 -32.349289 51.189397 0.000000 0.000000 0.000000 -0.635828 1.933473 -0.411241 -0.572942 3.508174 -0.780366 -0.710790 -2.477725 0.214322 0.000000 0.000000 0.000000 -1.587278 -1.922871 2.072901 -1.800288 10.842559 0.745629 -1.652510 -5.982530 -0.836247 0.000000 0.000000 0.000000 
800.007507 -48.129501 1154.937012 -1.063533 -3.020156 0.803936 0.658752 3.132221 3.383360 0.398749 -0.553294 -0.810116 0.553398 0.768241 0.477574 0.457488 0.799617 -2.170688 0.000000 0.000000 0.000000 1.277464 10.647541 -2.604962 12.924940 11.511222 -1.640410 -50.578518 9.562257 -92.307080 0.000000 0.000000 0.000000 1.257473 15.429163 -7.002625 2.429373 15.305478 17.556979 36.758523 -32.563818 51.112782 0.000000 0.000000 0.000000 -0.740696 1.551538 -0.371742 -0.643854 4.402057 -0.917081 -0.821362 -2.945376 0.265936 0.000000 0.000000 0.000000 -1.549457 -4.233443 2.291313 -1.920307 15.323893 0.195490 -1.797404 -7.717257 -0.926385 0.000000 0.000000 0.000000 
797.768677 -47.796623 1154.572998 -0.327956 -3.109630 0.747835 0.613068 3.539037 3.395860 0.509401 -0.592393 -0.671259 0.666414 0.772268 0.500317 0.443855 1.248278 -2.169518 0.000000 0.000000 0.000000 0.699392 10.522747 -3.088403 13.535382 11.249296 -1.268785 -50.389606 9.710595 -92.851606 0.000000 0.000000 0.000000 1.101064 15.300907 -6.764082 2.426063 15.086280 16.967723 37.189497 -32.965434 50.707073 0.000000 0.000000 0.000000 -1.012955 0.782557 -0.386834 -0.900624 5.952846 -0.868854 -1.144691 -3.755665 0.299094 0.000000 0.000000 0.000000 -1.620380 -7.643721 2.792804 -2.258359 21.572871 -0.938782 -2.254726 -9.498070 -1.138182 0.000000 0.000000 0.000000 
794.327820 -47.225086 1153.998047 0.792353 -3.128869 0.385388 0.469756 4.040385 3.983228 0.627477 -0.579227 -0.724158 0.817806 0.765384 0.532165 0.431292 1.701632 -2.185537 0.000000 0.000000 0.000000 -0.029974 10.255309 -3.911963 14.578291 10.802400 -0.764422 -49.959054 10.053241 -93.698551 0.000000 0.000000 0.000000 0.949886 15.117586 -6.352677 2.411092 14.754290 15.984181 37.824821 -33.477902 50.035423 0.000000 0.000000 0.000000 -1.393333 -0.391509 -0.142688 -1.288969 8.067478 -0.715967 -1.641236 -4.676870 0.284287 0.000000 0.000000 0.000000 -1.702007 -12.105174 3.741955 -2.846350 29.377187 -2.448651 -3.123419 -10.641804 -1.490793 0.000000 0.000000 0.000000 
791.045471 -46.399265 1153.062012 1.532158 -3.370778 -0.100422 0.297042 4.972893 4.898540 0.878636 -0.658544 -0.961728 1.147558 0.816359 0.560536 0.402752 2.097522 -2.129934 0.000000 0.000000 0.000000 -0.447499 9.902251 -4.688706 15.370052 10.429801 -0.315449 -49.694145 10.287039 -94.267287 0.000000 0.000000 0.000000 0.946556 14.980996 -5.878612 2.861062 14.486872 14.625970 38.860702 -34.183653 48.732451 0.000000 0.000000 0.000000 -1.630504 -1.389055 0.249263 -1.563313 10.286125 -0.611815 -2.065474 -5.541648 0.293199 0.000000 0.000000 0.000000 -1.577544 -16.152286 4.839214 -3.408427 36.499433 -3.927287 -4.059416 -10.731269 -1.842616 0.000000 0.000000 0.000000 
788.503479 -45.131977 1151.453003 1.627415 -4.011248 -0.377829 0.009993 6.502783 5.512646 1.295344 -0.824247 -1.179581 1.684434 1.013127 0.615660 0.345928 2.327270 -1.918076 0.000000 0.000000 0.000000 -0.104354 9.450708 -5.167667 15.271758 10.366952 0.001623 -50.088785 10.053472 -94.081834 0.000000 0.000000 0.000000 1.170314 14.973039 -5.416285 4.160171 14.411443 12.816842 40.455345 -35.105017 46.358906 0.000000 0.000000 0.000000 -1.665351 -1.950703 0.493811 -1.627776 12.495918 -0.669640 -2.327197 -6.480199 0.392106 0.000000 0.000000 0.000000 -1.256859 -19.210135 5.799805 -3.784072 42.172982 -5.419939 -4.855591 -10.320126 -2.135974 0.000000 0.000000 0.000000 
786.179993 -43.425518 1149.227051 1.352999 -4.941018 -0.511528 -0.498566 8.517138 5.882264 1.873158 -1.005942 -1.374018 2.428800 1.307601 0.683726 0.266736 2.406942 -1.576626 0.000000 0.000000 0.000000 0.814289 8.893909 -5.536746 14.621088 10.521961 0.261378 -50.929385 9.470364 -93.369988 0.000000 0.000000 0.000000 1.560968 15.071737 -4.956124 6.226308 14.509342 10.567792 42.447750 -35.970602 42.924664 0.000000 0.000000 0.000000 -1.597615 -2.298686 0.644422 -1.557643 14.870453 -0.842785 -2.521318 -7.511025 0.544633 0.000000 0.000000 0.000000 -0.823577 -21.855492 6.773047 -4.073980 47.284951 -7.087239 -5.639695 -9.536525 -2.429489 0.000000 0.000000 0.000000 
785.495361 -42.080475 1147.333984 0.896677 -5.856599 -0.633462 -1.075091 10.340938 6.141941 2.410791 -1.165671 -1.548530 3.129932 1.545275 0.726853 0.206124 2.596988 -1.338844 0.000000 0.000000 0.000000 1.713855 8.508376 -5.754876 14.234113 10.648571 0.379448 -51.418826 9.008904 -92.744491 0.000000 0.000000 0.000000 2.109508 15.244099 -4.626181 8.876983 14.819470 8.450515 44.459160 -36.447993 39.050187 0.000000 0.000000 0.000000 -1.514349 -2.253631 0.808899 -1.395336 16.603153 -0.999483 -2.602115 -8.259000 0.683485 0.000000 0.000000 0.000000 -0.345895 -23.793722 7.827661 -4.161713 50.860063 -8.496729 -5.967065 -8.556166 -2.553959 0.000000 0.000000 0.000000 
787.696350 -41.706917 1146.487061 0.468135 -6.549809 -0.803818 -1.530633 11.398379 6.393234 2.636877 -1.290366 -1.686785 3.464203 1.668825 0.767930 0.199238 3.175863 -1.419459 0.000000 0.000000 0.000000 2.301063 8.478914 -5.638198 14.610740 10.574694 0.238748 -51.074205 8.995941 -92.768405 0.000000 0.000000 0.000000 2.901926 15.417105 -4.620721 11.586893 15.251905 7.151187 46.079098 -36.561201 35.737988 0.000000 0.000000 0.000000 -1.508286 -1.598864 0.982349 -1.209689 17.020130 -1.008524 -2.526144 -8.562743 0.785224 0.000000 0.000000 0.000000 0.048255 -24.739249 9.000541 -3.957806 52.125796 -9.530350 -5.424718 -7.904179 -2.351771 0.000000 0.000000 0.000000 
792.228699 -42.002304 1146.327026 0.109301 -7.099202 -0.960704 -1.891157 11.855228 6.575779 2.559375 -1.372153 -1.770998 3.436161 1.756649 0.834676 0.237415 4.043939 -1.759223 0.000000 0.000000 0.000000 2.809990 8.690818 -5.182422 15.390950 10.405881 -0.136290 -50.214363 9.268504 -93.181946 0.000000 0.000000 0.000000 3.941887 15.575858 -4.894248 14.389628 15.742613 6.492574 47.445697 -36.458859 32.817507 0.000000 0.000000 0.000000 -1.580464 -0.434362 1.086509 -1.028270 16.432643 -0.901615 -2.335502 -8.603995 0.872909 0.000000 0.000000 0.000000 0.340318 -24.913002 10.258395 -3.504193 51.608793 -10.460017 -4.200012 -7.659971 -1.888513 0.000000 0.000000 0.000000 
